<?xml version="1.0" encoding="UTF-8" standalone="no"?>
<!-- Created with Inkscape (http://www.inkscape.org/) -->

<svg
   xmlns:dc="http://purl.org/dc/elements/1.1/"
   xmlns:cc="http://creativecommons.org/ns#"
   xmlns:rdf="http://www.w3.org/1999/02/22-rdf-syntax-ns#"
   xmlns:svg="http://www.w3.org/2000/svg"
   xmlns="http://www.w3.org/2000/svg"
   xmlns:sodipodi="http://sodipodi.sourceforge.net/DTD/sodipodi-0.dtd"
   xmlns:inkscape="http://www.inkscape.org/namespaces/inkscape"
   width="744.09448819"
   height="1052.3622047"
   id="svg2"
   version="1.1"
   inkscape:version="0.48.4 r9939"
   sodipodi:docname="mockup.svg">
  <defs
     id="defs4" />
  <sodipodi:namedview
     id="base"
     pagecolor="#ffffff"
     bordercolor="#666666"
     borderopacity="1.0"
     inkscape:pageopacity="0.0"
     inkscape:pageshadow="2"
     inkscape:zoom="0.9899495"
     inkscape:cx="293.81469"
     inkscape:cy="309.8319"
     inkscape:document-units="px"
     inkscape:current-layer="layer1"
     showgrid="false"
     inkscape:window-width="2560"
     inkscape:window-height="1334"
     inkscape:window-x="0"
     inkscape:window-y="55"
     inkscape:window-maximized="1">
    <inkscape:grid
       type="xygrid"
       id="grid2985" />
  </sodipodi:namedview>
  <metadata
     id="metadata7">
    <rdf:RDF>
      <cc:Work
         rdf:about="">
        <dc:format>image/svg+xml</dc:format>
        <dc:type
           rdf:resource="http://purl.org/dc/dcmitype/StillImage" />
        <dc:title />
      </cc:Work>
    </rdf:RDF>
  </metadata>
  <g
     inkscape:label="Layer 1"
     inkscape:groupmode="layer"
     id="layer1">
    <rect
       ry="20"
       y="433.06277"
       x="20.197948"
       height="610"
       width="360"
       id="rect3759"
       style="fill:#803300;fill-opacity:1;stroke:#803300" />
    <rect
       style="fill:#d45500;fill-opacity:1;stroke:#ff7f2a"
       id="rect2987"
       width="360"
       height="610"
       x="20.197948"
       y="421.06277"
       ry="20" />
    <rect
       style="fill:#ffffff;fill-opacity:1;stroke:none"
       id="rect3757"
       width="320"
       height="490"
       x="40.197948"
       y="461.06277"
       ry="10" />
    <g
       id="g3765"
       transform="translate(-79.802051,268.70058)">
      <rect
         ry="10"
         y="192.36218"
         x="120"
         height="20"
         width="320"
         id="rect3761"
         style="fill:#000000;fill-opacity:1;stroke:none" />
      <rect
         ry="0"
         y="202.36218"
         x="120"
         height="10"
         width="320"
         id="rect3763"
         style="fill:#000000;fill-opacity:1;stroke:none" />
    </g>
    <path
       style="fill:none;stroke:#000000;stroke-width:1px;stroke-linecap:butt;stroke-linejoin:miter;stroke-opacity:1"
       d="m 55.197949,516.06276 290.000001,0"
       id="path3769"
       inkscape:connector-curvature="0" />
    <text
       xml:space="preserve"
       style="font-size:40px;font-style:normal;font-variant:normal;font-weight:normal;font-stretch:normal;line-height:125%;letter-spacing:0px;word-spacing:0px;fill:#000000;fill-opacity:1;stroke:none;font-family:Fira Sans;-inkscape-font-specification:Fira Sans"
       x="65.154846"
       y="511.93057"
       id="text3771"
       sodipodi:linespacing="125%"><tspan
         sodipodi:role="line"
         id="tspan3773"
         x="65.154846"
         y="511.93057"
         style="font-size:20px">Nical</tspan></text>
    <g
       id="g3779"
       transform="translate(-79.802051,253.98629)">
      <rect
         style="fill:#0f94b5;fill-opacity:1;stroke:none"
         id="rect3777"
         width="290"
         height="100.49493"
         x="135"
         y="276.86725"
         ry="10" />
      <rect
         ry="10"
         y="272.36218"
         x="135"
         height="100"
         width="290"
         id="rect3775"
         style="fill:#80e5ff;fill-opacity:1;stroke:none" />
    </g>
    <rect
       ry="10"
       y="656.06274"
       x="55.197948"
       height="285"
       width="290"
       id="rect3787"
       style="fill:#ffdcc5;fill-opacity:1;stroke:none" />
    <text
       xml:space="preserve"
       style="font-size:40px;font-style:normal;font-variant:normal;font-weight:normal;font-stretch:normal;line-height:125%;letter-spacing:0px;word-spacing:0px;fill:#0055d4;fill-opacity:1;stroke:none;font-family:Fira Sans;-inkscape-font-specification:Fira Sans"
       x="140.19795"
       y="591.06274"
       id="text3789"
       sodipodi:linespacing="125%"><tspan
         sodipodi:role="line"
         id="tspan3791"
         x="140.19795"
         y="591.06274"
         style="font-style:italic;font-weight:bold;fill:#0055d4;fill-opacity:1;-inkscape-font-specification:Fira Sans Bold Italic">Apéro !</tspan></text>
    <text
       xml:space="preserve"
       style="font-size:40px;font-style:normal;font-variant:normal;font-weight:normal;font-stretch:normal;line-height:125%;letter-spacing:0px;word-spacing:0px;fill:#000000;fill-opacity:1;stroke:none;font-family:Fira Sans;-inkscape-font-specification:Fira Sans"
       x="63.769375"
       y="690.34845"
       id="text3799"
       sodipodi:linespacing="125%"><tspan
         sodipodi:role="line"
         id="tspan3801"
         x="63.769375"
         y="690.34845"
         style="font-size:24px">Cgg - 2 bis</tspan><tspan
         sodipodi:role="line"
         x="63.769375"
         y="720.34845"
         style="font-size:24px"
         id="tspan3807">papadelta - Caves pop</tspan><tspan
         sodipodi:role="line"
         x="63.769375"
         y="750.34845"
         style="font-size:24px"
         id="tspan3805">BSB - Dirty dicks</tspan></text>
    <text
       xml:space="preserve"
       style="font-size:40px;font-style:normal;font-variant:normal;font-weight:normal;font-stretch:normal;line-height:125%;letter-spacing:0px;word-spacing:0px;fill:#000000;fill-opacity:1;stroke:none;font-family:Fira Sans;-inkscape-font-specification:Fira Sans"
       x="326.6265"
       y="692.49133"
       id="text3849"
       sodipodi:linespacing="125%"><tspan
         sodipodi:role="line"
         id="tspan3851"
         x="326.6265"
         y="692.49133"
         style="font-size:24px">3</tspan><tspan
         sodipodi:role="line"
         x="326.6265"
         y="722.49133"
         id="tspan3853"
         style="font-size:24px">3</tspan><tspan
         sodipodi:role="line"
         x="326.6265"
         y="752.49133"
         id="tspan3855"
         style="font-size:24px">2</tspan></text>
    <path
       style="fill:#ffc379;fill-opacity:1;stroke:none"
       d="m 82.197949,564.06276 c 15,-5 20.000001,5 30.000001,0 l -2.71478,34.8106 -23.812821,-0.0631 z"
       id="path3859"
       inkscape:connector-curvature="0"
       sodipodi:nodetypes="ccccc" />
    <path
       style="fill:#ff6600;stroke:none"
       d="m 82.711339,563.95115 c 13.03572,-5.71429 18.857121,4.73915 28.946411,0.36415 -10.62501,5.71429 -17.961101,-3.20127 -28.946411,-0.36415 z"
       id="path3861"
       inkscape:connector-curvature="0"
       sodipodi:nodetypes="ccc" />
    <path
       sodipodi:nodetypes="ccc"
       inkscape:connector-curvature="0"
       id="path3863"
       d="m 82.774469,564.32998 c 12.59378,-2.17875 10.3971,3.79214 28.883281,0.30102 -20.284591,6.34564 -18.529311,-0.36022 -28.883281,-0.30102 z"
       style="fill:#c95406;fill-opacity:1;stroke:none" />
    <path
       style="fill:none;stroke:#ffffff;stroke-width:3;stroke-linecap:round;stroke-linejoin:miter;stroke-opacity:1"
       d="m 82.197949,549.06276 0,5 c -3.6126,4.55928 -0.99112,7.3046 0,10 0,0 3.03571,25.35714 3.03571,30.35714 0,5 0,5.00001 5,5.00001 5,0 9.64286,-0.35715 14.642861,-0.35715 5,0 5,0 5,-5 0,-5 2.32143,-30 2.32143,-30 2.89969,-3.65552 1.23791,-6.80421 0,-10 l 0,-5"
       id="path3857"
       inkscape:connector-curvature="0"
       sodipodi:nodetypes="cccssssccc" />
    <rect
       style="fill:#803300;fill-opacity:1;stroke:#803300"
       id="rect3018"
       width="360"
       height="610"
       x="486"
       y="164.36218"
       ry="20" />
    <rect
       ry="20"
       y="152.36218"
       x="486"
       height="610"
       width="360"
       id="rect3020"
       style="fill:#d45500;fill-opacity:1;stroke:#ff7f2a" />
    <rect
       ry="10"
       y="192.36218"
       x="506"
       height="490"
       width="320"
       id="rect3022"
       style="fill:#ffffff;fill-opacity:1;stroke:none" />
    <g
       id="g3024"
       transform="translate(386,0)">
      <rect
         style="fill:#000000;fill-opacity:1;stroke:none"
         id="rect3026"
         width="320"
         height="20"
         x="120"
         y="192.36218"
         ry="10" />
      <rect
         style="fill:#000000;fill-opacity:1;stroke:none"
         id="rect3028"
         width="320"
         height="10"
         x="120"
         y="202.36218"
         ry="0" />
    </g>
    <path
       inkscape:connector-curvature="0"
       id="path3030"
       d="m 521,247.36218 290,0"
       style="fill:none;stroke:#000000;stroke-width:1px;stroke-linecap:butt;stroke-linejoin:miter;stroke-opacity:1" />
    <text
       sodipodi:linespacing="125%"
       id="text3032"
       y="243.23"
       x="530.95691"
       style="font-size:40px;font-style:normal;font-variant:normal;font-weight:normal;font-stretch:normal;line-height:125%;letter-spacing:0px;word-spacing:0px;fill:#000000;fill-opacity:1;stroke:none;font-family:Fira Sans;-inkscape-font-specification:Fira Sans"
       xml:space="preserve"><tspan
         style="font-size:20px"
         y="243.23"
         x="530.95691"
         id="tspan3034"
         sodipodi:role="line">Nical</tspan></text>
    <g
       transform="translate(386,-14.714286)"
       id="g3036">
      <rect
         ry="10"
         y="276.86725"
         x="135"
         height="100.49493"
         width="290"
         id="rect3038"
         style="fill:#0f94b5;fill-opacity:1;stroke:none" />
      <rect
         style="fill:#80e5ff;fill-opacity:1;stroke:none"
         id="rect3040"
         width="290"
         height="100"
         x="135"
         y="272.36218"
         ry="10" />
    </g>
    <rect
       style="fill:#ffdcc5;fill-opacity:1;stroke:none"
       id="rect3042"
       width="290"
       height="285"
       x="521"
       y="387.36218"
       ry="10" />
    <text
       sodipodi:linespacing="125%"
       id="text3044"
       y="322.36218"
       x="606"
       style="font-size:40px;font-style:normal;font-variant:normal;font-weight:normal;font-stretch:normal;line-height:125%;letter-spacing:0px;word-spacing:0px;fill:#0055d4;fill-opacity:1;stroke:none;font-family:Fira Sans;-inkscape-font-specification:Fira Sans"
       xml:space="preserve"><tspan
         style="font-style:italic;font-weight:bold;fill:#0055d4;fill-opacity:1;-inkscape-font-specification:Fira Sans Bold Italic"
         y="322.36218"
         x="606"
         id="tspan3046"
         sodipodi:role="line">Apéro !</tspan></text>
    <rect
       style="fill:#ffffff;fill-opacity:1;stroke:none"
       id="rect3163"
       width="273.75134"
       height="87.046425"
       x="528.30975"
       y="523.87909"
       ry="9.8984747" />
    <rect
       ry="9.5964336"
       y="432.74423"
       x="528.30975"
       height="37.130547"
       width="273.75134"
       id="rect3165"
       style="fill:#ffffff;fill-opacity:1;stroke:none" />
    <text
       sodipodi:linespacing="125%"
       id="text3048"
       y="428.63776"
       x="530.56128"
       style="font-size:40px;font-style:normal;font-variant:normal;font-weight:normal;font-stretch:normal;line-height:125%;letter-spacing:0px;word-spacing:0px;fill:#000000;fill-opacity:1;stroke:none;font-family:Fira Sans;-inkscape-font-specification:Fira Sans"
       xml:space="preserve"><tspan
         id="tspan3054"
         style="font-size:24px"
         y="428.63776"
         x="530.56128"
         sodipodi:role="line">                 Lieu:</tspan><tspan
         style="font-size:24px"
         y="458.63776"
         x="530.56128"
         sodipodi:role="line"
         id="tspan3079">caves pop</tspan><tspan
         style="font-size:24px"
         y="488.63776"
         x="530.56128"
         sodipodi:role="line"
         id="tspan3169" /><tspan
         style="font-size:24px"
         y="518.63776"
         x="530.56128"
         sodipodi:role="line"
         id="tspan3138">             Message:</tspan><tspan
         style="font-size:24px"
         y="548.63776"
         x="530.56128"
         sodipodi:role="line"
         id="tspan3097">Il était un petit navireuh,</tspan><tspan
         style="font-size:24px"
         y="578.63776"
         x="530.56128"
         sodipodi:role="line"
         id="tspan3099">qui n'avait ja, ja, jamais...</tspan><tspan
         style="font-size:24px"
         y="608.63776"
         x="530.56128"
         sodipodi:role="line"
         id="tspan3083" /><tspan
         style="font-size:24px"
         y="638.63776"
         x="530.56128"
         sodipodi:role="line"
         id="tspan3085" /><tspan
         style="font-size:24px"
         y="668.63776"
         x="530.56128"
         sodipodi:role="line"
         id="tspan3087" /><tspan
         style="font-size:24px"
         y="698.63776"
         x="530.56128"
         sodipodi:role="line"
         id="tspan3089" /></text>
    <path
       sodipodi:nodetypes="ccccc"
       inkscape:connector-curvature="0"
       id="path3064"
       d="m 548,295.36218 c 15,-5 20,5 30,0 l -2.71478,34.8106 -23.81282,-0.0631 z"
       style="fill:#ffc379;fill-opacity:1;stroke:none" />
    <path
       sodipodi:nodetypes="ccc"
       inkscape:connector-curvature="0"
       id="path3066"
       d="m 548.51339,295.25057 c 13.03572,-5.71429 18.85712,4.73915 28.94641,0.36415 -10.62501,5.71429 -17.9611,-3.20127 -28.94641,-0.36415 z"
       style="fill:#ff6600;stroke:none" />
    <path
       style="fill:#c95406;fill-opacity:1;stroke:none"
       d="m 548.57652,295.6294 c 12.59378,-2.17875 10.3971,3.79214 28.88328,0.30102 -20.28459,6.34564 -18.52931,-0.36022 -28.88328,-0.30102 z"
       id="path3068"
       inkscape:connector-curvature="0"
       sodipodi:nodetypes="ccc" />
    <path
       sodipodi:nodetypes="cccssssccc"
       inkscape:connector-curvature="0"
       id="path3070"
       d="m 548,280.36218 0,5 c -3.6126,4.55928 -0.99112,7.3046 0,10 0,0 3.03571,25.35714 3.03571,30.35714 0,5 0,5.00001 5,5.00001 5,0 9.64286,-0.35715 14.64286,-0.35715 5,0 5,0 5,-5 0,-5 2.32143,-30 2.32143,-30 2.89969,-3.65552 1.23791,-6.80421 0,-10 l 0,-5"
       style="fill:none;stroke:#ffffff;stroke-width:3;stroke-linecap:round;stroke-linejoin:miter;stroke-opacity:1" />
    <rect
       style="fill:#aad400;fill-opacity:1;stroke:none"
       id="rect3091"
       width="128.28949"
       height="41.416241"
       x="674.74127"
       y="623.0473"
       ry="19.697968" />
    <rect
       style="fill:#ff2a2a;fill-opacity:1;stroke:none;stroke-width:3;stroke-linecap:round;stroke-linejoin:round;stroke-miterlimit:4;stroke-dasharray:none"
       id="rect3093"
       width="135.3605"
       height="41.416241"
       x="529.31995"
       y="623.0473"
       ry="19.697975" />
    <rect
       ry="20"
       y="422.96124"
       x="951.86298"
       height="610"
       width="360"
       id="rect3101"
       style="fill:#803300;fill-opacity:1;stroke:#803300" />
    <rect
       style="fill:#d45500;fill-opacity:1;stroke:#ff7f2a"
       id="rect3103"
       width="360"
       height="610"
       x="951.86298"
       y="410.96124"
       ry="20" />
    <rect
       style="fill:#ffffff;fill-opacity:1;stroke:none"
       id="rect3105"
       width="320"
       height="490"
       x="971.86298"
       y="450.96124"
       ry="10" />
    <g
       transform="translate(851.86297,258.59905)"
       id="g3107">
      <rect
         ry="10"
         y="192.36218"
         x="120"
         height="20"
         width="320"
         id="rect3109"
         style="fill:#000000;fill-opacity:1;stroke:none" />
      <rect
         ry="0"
         y="202.36218"
         x="120"
         height="10"
         width="320"
         id="rect3111"
         style="fill:#000000;fill-opacity:1;stroke:none" />
    </g>
    <path
       style="fill:none;stroke:#000000;stroke-width:1px;stroke-linecap:butt;stroke-linejoin:miter;stroke-opacity:1"
       d="m 986.86297,505.96123 290.00003,0"
       id="path3113"
       inkscape:connector-curvature="0" />
    <text
       xml:space="preserve"
       style="font-size:40px;font-style:normal;font-variant:normal;font-weight:normal;font-stretch:normal;line-height:125%;letter-spacing:0px;word-spacing:0px;fill:#000000;fill-opacity:1;stroke:none;font-family:Fira Sans;-inkscape-font-specification:Fira Sans"
       x="996.81989"
       y="501.82904"
       id="text3115"
       sodipodi:linespacing="125%"><tspan
         sodipodi:role="line"
         id="tspan3117"
         x="996.81989"
         y="501.82904"
         style="font-size:20px">Nical</tspan></text>
    <g
       id="g3119"
       transform="translate(851.86297,243.88477)">
      <rect
         style="fill:#0f94b5;fill-opacity:1;stroke:none"
         id="rect3121"
         width="290"
         height="100.49493"
         x="135"
         y="276.86725"
         ry="10" />
      <rect
         ry="10"
         y="272.36218"
         x="135"
         height="100"
         width="290"
         id="rect3123"
         style="fill:#80e5ff;fill-opacity:1;stroke:none" />
    </g>
    <rect
       ry="10"
       y="750.00696"
       x="988.8833"
       height="178.93402"
       width="286.96948"
       id="rect3125"
       style="fill:#ffdcc5;fill-opacity:1;stroke:none" />
    <text
       xml:space="preserve"
       style="font-size:40px;font-style:normal;font-variant:normal;font-weight:normal;font-stretch:normal;line-height:125%;letter-spacing:0px;word-spacing:0px;fill:none;stroke:none;font-family:Fira Sans;-inkscape-font-specification:Fira Sans"
       x="1053.8629"
       y="580.96124"
       id="text3127"
       sodipodi:linespacing="125%"><tspan
         sodipodi:role="line"
         id="tspan3129"
         x="1053.8629"
         y="580.96124"
         style="font-style:italic;font-weight:bold;fill:none;stroke:none;-inkscape-font-specification:Fira Sans Bold Italic">En Apéro</tspan></text>
    <path
       style="fill:#ffc379;fill-opacity:1;stroke:none"
       d="m 1013.863,553.96123 c 15,-5 20,5 30,0 l -2.7148,34.8106 -23.8128,-0.0631 z"
       id="path3155"
       inkscape:connector-curvature="0"
       sodipodi:nodetypes="ccccc" />
    <path
       style="fill:#ff6600;stroke:none"
       d="m 1014.3764,553.84962 c 13.0357,-5.71429 18.8571,4.73915 28.9464,0.36415 -10.625,5.71429 -17.9611,-3.20127 -28.9464,-0.36415 z"
       id="path3157"
       inkscape:connector-curvature="0"
       sodipodi:nodetypes="ccc" />
    <path
       sodipodi:nodetypes="ccc"
       inkscape:connector-curvature="0"
       id="path3159"
       d="m 1014.4395,554.22845 c 12.5938,-2.17875 10.3971,3.79214 28.8833,0.30102 -20.2846,6.34564 -18.5293,-0.36022 -28.8833,-0.30102 z"
       style="fill:#c95406;fill-opacity:1;stroke:none" />
    <path
       style="fill:none;stroke:#ffffff;stroke-width:3;stroke-linecap:round;stroke-linejoin:miter;stroke-opacity:1"
       d="m 1013.863,538.96123 0,5 c -3.6126,4.55928 -0.9912,7.3046 0,10 0,0 3.0357,25.35714 3.0357,30.35714 0,5 0,5.00001 5,5.00001 5,0 9.6428,-0.35715 14.6428,-0.35715 5,0 5,0 5,-5 0,-5 2.3215,-30 2.3215,-30 2.8997,-3.65552 1.2379,-6.80421 0,-10 l 0,-5"
       id="path3161"
       inkscape:connector-curvature="0"
       sodipodi:nodetypes="cccssssccc" />
    <g
       id="g3939"
       transform="translate(79.862967,266.59905)">
      <path
         sodipodi:nodetypes="cc"
         inkscape:connector-curvature="0"
         id="path3167"
         d="m 1152.3314,313.68813 26.6428,-23.86485"
         style="fill:none;stroke:#ff0000;stroke-width:7;stroke-linecap:round;stroke-linejoin:miter;stroke-miterlimit:4;stroke-opacity:1;stroke-dasharray:none" />
      <path
         sodipodi:nodetypes="cc"
         inkscape:connector-curvature="0"
         id="path3169"
         d="m 1152.4578,289.82328 26.1377,24.24366"
         style="fill:none;stroke:#ff0000;stroke-width:7;stroke-linecap:round;stroke-linejoin:miter;stroke-miterlimit:4;stroke-opacity:1;stroke-dasharray:none" />
    </g>
    <text
       xml:space="preserve"
       style="font-size:40px;font-style:normal;font-variant:normal;font-weight:normal;font-stretch:normal;line-height:125%;letter-spacing:0px;word-spacing:0px;fill:#000000;fill-opacity:1;stroke:none;font-family:Fira Sans;-inkscape-font-specification:Fira Sans"
       x="1253.402"
       y="784.82446"
       id="text3849-7"
       sodipodi:linespacing="125%"><tspan
         sodipodi:role="line"
         id="tspan3851-7"
         x="1253.402"
         y="784.82446"
         style="font-size:24px">3</tspan><tspan
         sodipodi:role="line"
         x="1253.402"
         y="814.82446"
         id="tspan3853-3"
         style="font-size:24px">3</tspan><tspan
         sodipodi:role="line"
         x="1253.402"
         y="844.82446"
         id="tspan3855-9"
         style="font-size:24px">2</tspan></text>
    <rect
       style="fill:#ffffff;fill-opacity:1;stroke:none"
       id="rect3984"
       width="276.7818"
       height="54.548237"
       x="992.97998"
       y="652.34174"
       ry="10" />
    <text
       xml:space="preserve"
       style="font-size:40px;font-style:normal;font-variant:normal;font-weight:normal;font-stretch:normal;line-height:125%;letter-spacing:0px;word-spacing:0px;fill:#000000;fill-opacity:1;stroke:none;font-family:Fira Sans;-inkscape-font-specification:Fira Sans"
       x="992.56525"
       y="785.93542"
       id="text3799-2"
       sodipodi:linespacing="125%"><tspan
         sodipodi:role="line"
         id="tspan3801-1"
         x="992.56525"
         y="785.93542"
         style="font-size:24px">Nical - ici</tspan><tspan
         sodipodi:role="line"
         x="992.56525"
         y="815.93542"
         style="font-size:24px"
         id="tspan3982">Cgg - 2 bis</tspan><tspan
         sodipodi:role="line"
         x="992.56525"
         y="845.93542"
         style="font-size:24px"
         id="tspan3807-0">papadelta - Caves pop</tspan><tspan
         sodipodi:role="line"
         x="992.56525"
         y="875.93542"
         style="font-size:24px"
         id="tspan3805-5">BSB - Dirty dicks</tspan></text>
    <text
       xml:space="preserve"
       style="font-size:40px;font-style:normal;font-variant:normal;font-weight:normal;font-stretch:normal;line-height:125%;letter-spacing:0px;word-spacing:0px;fill:#0055d4;fill-opacity:1;stroke:none;font-family:Fira Sans;-inkscape-font-specification:Fira Sans"
       x="1047.7006"
       y="578.94092"
       id="text3986"
       sodipodi:linespacing="125%"><tspan
         sodipodi:role="line"
         id="tspan3988"
         x="1047.7006"
         y="578.94092"
         style="font-style:italic;font-weight:bold;fill:#0055d4;fill-opacity:1;-inkscape-font-specification:Fira Sans Bold Italic">caves pop</tspan></text>
    <rect
       style="fill:#e3e2db;stroke:none"
       id="rect3990"
       width="285.76114"
       height="101.01526"
       x="987.90887"
       y="634.159"
       ry="10" />
    <rect
       style="fill:#803300;fill-opacity:1;stroke:#803300"
       id="rect3992"
       width="360"
       height="610"
       x="484"
       y="816.36218"
       ry="20" />
    <rect
       ry="20"
       y="804.36218"
       x="484"
       height="610"
       width="360"
       id="rect3994"
       style="fill:#d45500;fill-opacity:1;stroke:#ff7f2a" />
    <rect
       ry="10"
       y="844.36218"
       x="504"
       height="490"
       width="320"
       id="rect3996"
       style="fill:#ffffff;fill-opacity:1;stroke:none" />
    <g
       id="g3998"
       transform="translate(384,652)">
      <rect
         style="fill:#000000;fill-opacity:1;stroke:none"
         id="rect4000"
         width="320"
         height="20"
         x="120"
         y="192.36218"
         ry="10" />
      <rect
         style="fill:#000000;fill-opacity:1;stroke:none"
         id="rect4002"
         width="320"
         height="10"
         x="120"
         y="202.36218"
         ry="0" />
    </g>
    <path
       inkscape:connector-curvature="0"
       id="path4004"
       d="m 519,899.36218 290,0"
       style="fill:none;stroke:#000000;stroke-width:1px;stroke-linecap:butt;stroke-linejoin:miter;stroke-opacity:1" />
    <text
       sodipodi:linespacing="125%"
       id="text4006"
       y="895.22998"
       x="528.95691"
       style="font-size:40px;font-style:normal;font-variant:normal;font-weight:normal;font-stretch:normal;line-height:125%;letter-spacing:0px;word-spacing:0px;fill:#000000;fill-opacity:1;stroke:none;font-family:Fira Sans;-inkscape-font-specification:Fira Sans"
       xml:space="preserve"><tspan
         style="font-size:20px"
         y="895.22998"
         x="528.95691"
         id="tspan4008"
         sodipodi:role="line">Nical</tspan></text>
    <g
       transform="translate(384,637.28571)"
       id="g4010">
      <rect
         ry="10"
         y="276.86725"
         x="135"
         height="100.49493"
         width="290"
         id="rect4012"
         style="fill:#0f94b5;fill-opacity:1;stroke:none" />
      <rect
         style="fill:#80e5ff;fill-opacity:1;stroke:none"
         id="rect4014"
         width="290"
         height="100"
         x="135"
         y="272.36218"
         ry="10" />
    </g>
    <rect
       style="fill:#ffdcc5;fill-opacity:1;stroke:none"
       id="rect4016"
       width="290"
       height="285"
       x="519"
       y="1039.3622"
       ry="10" />
    <text
       sodipodi:linespacing="125%"
       id="text4018"
       y="974.36218"
       x="616"
       style="font-size:40px;font-style:normal;font-variant:normal;font-weight:normal;font-stretch:normal;line-height:125%;letter-spacing:0px;word-spacing:0px;fill:#0055d4;fill-opacity:1;stroke:none;font-family:Fira Sans;-inkscape-font-specification:Fira Sans"
       xml:space="preserve"><tspan
         style="font-style:italic;font-weight:bold;fill:#0055d4;fill-opacity:1;-inkscape-font-specification:Fira Sans Bold Italic"
         y="974.36218"
         x="616"
         id="tspan4020"
         sodipodi:role="line">Join !</tspan></text>
    <rect
       style="fill:#ffffff;fill-opacity:1;stroke:none"
       id="rect4050"
       width="274.76151"
       height="55.558392"
       x="525.44165"
       y="1049.3521"
       ry="10" />
    <text
       sodipodi:linespacing="125%"
       id="text4022"
       y="1073.6479"
       x="527.57141"
       style="font-size:40px;font-style:normal;font-variant:normal;font-weight:normal;font-stretch:normal;line-height:125%;letter-spacing:0px;word-spacing:0px;fill:#000000;fill-opacity:1;stroke:none;font-family:Fira Sans;-inkscape-font-specification:Fira Sans"
       xml:space="preserve"><tspan
         style="font-size:24px"
         y="1073.6479"
         x="527.57141"
         id="tspan4024"
         sodipodi:role="line">Cgg - 2 bis</tspan><tspan
         id="tspan4026"
         style="font-size:24px"
         y="1103.6479"
         x="527.57141"
         sodipodi:role="line" /><tspan
         style="font-size:24px"
         y="1133.6479"
         x="527.57141"
         sodipodi:role="line"
         id="tspan4046">papadelta - Caves pop</tspan><tspan
         id="tspan4028"
         style="font-size:24px"
         y="1163.6479"
         x="527.57141"
         sodipodi:role="line">BSB - Dirty dicks</tspan></text>
    <text
       sodipodi:linespacing="125%"
       id="text4030"
       y="1075.7908"
       x="784.42859"
       style="font-size:40px;font-style:normal;font-variant:normal;font-weight:normal;font-stretch:normal;line-height:125%;letter-spacing:0px;word-spacing:0px;fill:#000000;fill-opacity:1;stroke:none;font-family:Fira Sans;-inkscape-font-specification:Fira Sans"
       xml:space="preserve"><tspan
         style="font-size:24px"
         y="1075.7908"
         x="784.42859"
         id="tspan4032"
         sodipodi:role="line">3</tspan><tspan
         style="font-size:24px"
         id="tspan4034"
         y="1105.7908"
         x="784.42859"
         sodipodi:role="line" /><tspan
         style="font-size:24px"
         y="1135.7908"
         x="784.42859"
         sodipodi:role="line"
         id="tspan4048">3</tspan><tspan
         style="font-size:24px"
         id="tspan4036"
         y="1165.7908"
         x="784.42859"
         sodipodi:role="line">2</tspan></text>
    <path
       sodipodi:nodetypes="ccccc"
       inkscape:connector-curvature="0"
       id="path4038"
       d="m 546,947.36218 c 15,-5 20,5 30,0 l -2.71478,34.8106 -23.81282,-0.0631 z"
       style="fill:#ffc379;fill-opacity:1;stroke:none" />
    <path
       sodipodi:nodetypes="ccc"
       inkscape:connector-curvature="0"
       id="path4040"
       d="m 546.51339,947.25057 c 13.03572,-5.71429 18.85712,4.73915 28.94641,0.36415 -10.62501,5.71429 -17.9611,-3.20127 -28.94641,-0.36415 z"
       style="fill:#ff6600;stroke:none" />
    <path
       style="fill:#c95406;fill-opacity:1;stroke:none"
       d="m 546.57652,947.6294 c 12.59378,-2.17875 10.3971,3.79214 28.88328,0.30102 -20.28459,6.34564 -18.52931,-0.36022 -28.88328,-0.30102 z"
       id="path4042"
       inkscape:connector-curvature="0"
       sodipodi:nodetypes="ccc" />
    <path
       sodipodi:nodetypes="cccssssccc"
       inkscape:connector-curvature="0"
       id="path4044"
       d="m 546,932.36218 0,5 c -3.6126,4.55928 -0.99112,7.3046 0,10 0,0 3.03571,25.35714 3.03571,30.35714 0,5 0,5.00001 5,5.00001 5,0 9.64286,-0.35715 14.64286,-0.35715 5,0 5,0 5,-5 0,-5 2.32143,-30 2.32143,-30 2.89969,-3.65552 1.23791,-6.80421 0,-10 l 0,-5"
       style="fill:none;stroke:#ffffff;stroke-width:3;stroke-linecap:round;stroke-linejoin:miter;stroke-opacity:1" />
    <path
       style="fill:none;stroke:#000000;stroke-width:7;stroke-linecap:round;stroke-linejoin:round;stroke-opacity:1;stroke-miterlimit:4;stroke-dasharray:none"
       d="m 396.98995,611.93567 49.49748,-19.1929 -6.06092,-22.22335 23.23351,22.22335 -11.11168,21.21321"
       id="path4052"
       inkscape:connector-curvature="0" />
    <path
       inkscape:connector-curvature="0"
       id="path4054"
       d="m 858.62966,922.0525 49.49748,-19.1929 -6.06092,-22.22335 23.23351,22.22335 -11.11168,21.21321"
       style="fill:none;stroke:#000000;stroke-width:7;stroke-linecap:round;stroke-linejoin:round;stroke-miterlimit:4;stroke-opacity:1;stroke-dasharray:none" />
    <path
       style="fill:none;stroke:#000000;stroke-width:7;stroke-linecap:round;stroke-linejoin:round;stroke-miterlimit:4;stroke-opacity:1;stroke-dasharray:none"
       d="m 863.17339,576.37968 47.23644,24.22986 12.57759,-19.29809 -1.16495,32.12968 -23.23544,5.79517"
       id="path4056"
       inkscape:connector-curvature="0" />
    <path
       inkscape:connector-curvature="0"
       id="path4058"
       d="m 399.51337,876.39499 47.23644,24.22986 12.57759,-19.29809 -1.16495,32.12968 -23.23544,5.79517"
       style="fill:none;stroke:#000000;stroke-width:7;stroke-linecap:round;stroke-linejoin:round;stroke-miterlimit:4;stroke-opacity:1;stroke-dasharray:none" />
    <rect
       style="fill:#803300;fill-opacity:1;stroke:#803300"
       id="rect4060"
       width="360"
       height="610"
       x="-486.94492"
       y="433.06277"
       ry="20" />
    <rect
       ry="20"
       y="421.06277"
       x="-486.94492"
       height="610"
       width="360"
       id="rect4062"
       style="fill:#d45500;fill-opacity:1;stroke:#ff7f2a" />
    <rect
       ry="10"
       y="461.06277"
       x="-466.94492"
       height="490"
       width="320"
       id="rect4064"
       style="fill:#ffffff;fill-opacity:1;stroke:none" />
    <g
       transform="translate(-586.94491,268.70058)"
       id="g4066">
      <rect
         style="fill:#000000;fill-opacity:1;stroke:none"
         id="rect4068"
         width="320"
         height="20"
         x="120"
         y="192.36218"
         ry="10" />
      <rect
         style="fill:#000000;fill-opacity:1;stroke:none"
         id="rect4070"
         width="320"
         height="10"
         x="120"
         y="202.36218"
         ry="0" />
    </g>
    <path
       inkscape:connector-curvature="0"
       id="path4072"
       d="m -451.94491,516.06276 290,0"
       style="fill:none;stroke:#000000;stroke-width:1px;stroke-linecap:butt;stroke-linejoin:miter;stroke-opacity:1" />
    <g
       transform="translate(-586.94491,253.98629)"
       id="g4078">
      <rect
         ry="10"
         y="276.86725"
         x="135"
         height="100.49493"
         width="290"
         id="rect4080"
         style="fill:#0f94b5;fill-opacity:1;stroke:none" />
      <rect
         style="fill:#80e5ff;fill-opacity:1;stroke:none"
         id="rect4082"
         width="290"
         height="100"
         x="135"
         y="272.36218"
         ry="10" />
    </g>
    <rect
       style="fill:#ffdcc5;fill-opacity:1;stroke:none"
       id="rect4084"
       width="290"
       height="285"
       x="-451.94492"
       y="656.06274"
       ry="10" />
    <text
       sodipodi:linespacing="125%"
       id="text4086"
       y="591.06274"
       x="-334.94492"
       style="font-size:40px;font-style:normal;font-variant:normal;font-weight:normal;font-stretch:normal;line-height:125%;letter-spacing:0px;word-spacing:0px;fill:#0055d4;fill-opacity:1;stroke:none;font-family:Fira Sans;-inkscape-font-specification:Fira Sans"
       xml:space="preserve"><tspan
         style="font-style:italic;font-weight:bold;fill:#0055d4;fill-opacity:1;-inkscape-font-specification:Fira Sans Bold Italic"
         y="591.06274"
         x="-334.94492"
         id="tspan4088"
         sodipodi:role="line">Go !</tspan></text>
    <text
       sodipodi:linespacing="125%"
       id="text4090"
       y="690.34845"
       x="-413.3735"
       style="font-size:40px;font-style:normal;font-variant:normal;font-weight:normal;font-stretch:normal;line-height:125%;letter-spacing:0px;word-spacing:0px;fill:#000000;fill-opacity:1;stroke:none;font-family:Fira Sans;-inkscape-font-specification:Fira Sans"
       xml:space="preserve"><tspan
         id="tspan4096"
         style="font-size:24px"
         y="690.34845"
         x="-413.3735"
         sodipodi:role="line">What's your name?</tspan><tspan
         style="font-size:24px"
         y="720.34845"
         x="-413.3735"
         sodipodi:role="line"
         id="tspan4121" /><tspan
         style="font-size:24px"
         y="750.34845"
         x="-413.3735"
         sodipodi:role="line"
         id="tspan4123" /></text>
    <rect
       style="fill:#ffffff;fill-opacity:1;stroke:none"
       id="rect3173"
       width="273.75134"
       height="37.130547"
       x="-441.43668"
       y="796.39917"
       ry="9.5964336" />
    <text
       sodipodi:linespacing="125%"
       id="text4098"
       y="824.49133"
       x="-431.65921"
       style="font-size:40px;font-style:normal;font-variant:normal;font-weight:normal;font-stretch:normal;line-height:125%;letter-spacing:0px;word-spacing:0px;fill:#000000;fill-opacity:1;stroke:none;font-family:Fira Sans;-inkscape-font-specification:Fira Sans"
       xml:space="preserve"><tspan
         style="font-size:24px"
         id="tspan4104"
         y="824.49133"
         x="-431.65921"
         sodipodi:role="line">Nical</tspan></text>
    <path
       sodipodi:nodetypes="ccccc"
       inkscape:connector-curvature="0"
       id="path4106"
       d="m -421.53565,587.17 c 15,-5 13.81282,5.25254 23.81282,0.25254 l 0.0631,11.45082 -23.81282,-0.0631 z"
       style="fill:#ffc379;fill-opacity:1;stroke:none" />
    <path
       sodipodi:nodetypes="ccc"
       inkscape:connector-curvature="0"
       id="path4108"
       d="m -421.71723,586.8083 c 11.74903,-5.71429 16.99584,4.73915 26.08927,0.36415 -9.57628,5.71429 -16.18826,-3.20127 -26.08927,-0.36415 z"
       style="fill:#ff6600;stroke:none" />
    <path
       style="fill:#c95406;fill-opacity:1;stroke:none"
       d="m -421.66033,587.18713 c 11.35072,-2.17875 9.37086,3.79214 26.03237,0.30102 -18.28241,6.34564 -16.70039,-0.36022 -26.03237,-0.30102 z"
       id="path4110"
       inkscape:connector-curvature="0"
       sodipodi:nodetypes="ccc" />
    <path
       sodipodi:nodetypes="cccssssccc"
       inkscape:connector-curvature="0"
       id="path4112"
       d="m -424.94491,549.06276 0,5 c -3.6126,4.55928 -0.99112,7.3046 0,10 0,0 3.03571,25.35714 3.03571,30.35714 0,5 0,5.00001 5,5.00001 5,0 9.64286,-0.35715 14.64286,-0.35715 5,0 5,0 5,-5 0,-5 2.32143,-30 2.32143,-30 2.89969,-3.65552 1.23791,-6.80421 0,-10 l 0,-5"
       style="fill:none;stroke:#ffffff;stroke-width:3;stroke-linecap:round;stroke-linejoin:miter;stroke-opacity:1" />
    <path
       inkscape:connector-curvature="0"
       id="path4114"
       d="m -89.325834,714.14026 53.088018,0.17479 2.458814,-22.90341 13.531717,29.16446 -18.081062,15.70175"
       style="fill:none;stroke:#000000;stroke-width:7;stroke-linecap:round;stroke-linejoin:round;stroke-miterlimit:4;stroke-opacity:1;stroke-dasharray:none" />
    <g
       id="g3155"
       transform="translate(1.5152288,-6)">
      <rect
         style="fill:#c87137;fill-opacity:1;stroke:none"
         id="rect3153"
         width="45.961941"
         height="45.961941"
         x="754.58392"
         y="430.06763"
         ry="9.009901" />
      <rect
         ry="9.009901"
         y="426.06763"
         x="754.58392"
         height="45.961941"
         width="45.961941"
         id="rect3151"
         style="fill:#e9c6af;fill-opacity:1;stroke:none" />
      <g
         transform="matrix(0.71145785,0,0,0.71145785,229.8828,117.52388)"
         id="g3146">
        <path
           sodipodi:type="arc"
           style="fill:#917c6f;fill-opacity:1;stroke:none"
           id="path3140"
           sodipodi:cx="769.64288"
           sodipodi:cy="445.57648"
           sodipodi:rx="21.785715"
           sodipodi:ry="21.785715"
           d="m 791.4286,445.57648 c 0,12.03192 -9.7538,21.78571 -21.78572,21.78571 -12.03191,0 -21.78571,-9.75379 -21.78571,-21.78571 0,-12.03192 9.7538,-21.78572 21.78571,-21.78572 12.03192,0 21.78572,9.7538 21.78572,21.78572 z" />
        <path
           style="fill:#917c6f;fill-opacity:1;stroke:none"
           d="m 750.92214,456.62472 16.28872,27.52666 c 2.47737,4.29511 5.55797,2.69655 6.81853,0 l 14.2684,-27.14785 z"
           id="path3142"
           inkscape:connector-curvature="0"
           sodipodi:nodetypes="ccccc" />
        <path
           d="m 791.4286,445.57648 c 0,12.03192 -9.7538,21.78571 -21.78572,21.78571 -12.03191,0 -21.78571,-9.75379 -21.78571,-21.78571 0,-12.03192 9.7538,-21.78572 21.78571,-21.78572 12.03192,0 21.78572,9.7538 21.78572,21.78572 z"
           sodipodi:ry="21.785715"
           sodipodi:rx="21.785715"
           sodipodi:cy="445.57648"
           sodipodi:cx="769.64288"
           id="path3144"
           style="fill:#cccccc;fill-opacity:1;stroke:none"
           sodipodi:type="arc"
           transform="matrix(0.84930512,0,0,0.84930512,115.98124,67.146094)" />
      </g>
    </g>
  </g>
</svg>
